<?xml version="1.0" encoding="utf-8"?>
<!-- Generator: Adobe Illustrator 25.4.0, SVG Export Plug-In . SVG Version: 6.00 Build 0)  -->
<svg version="1.1" id="Layer_1" xmlns="http://www.w3.org/2000/svg" xmlns:xlink="http://www.w3.org/1999/xlink" x="0px" y="0px"
	 viewBox="0 0 1920 1080" style="enable-background:new 0 0 1920 1080;" xml:space="preserve">
<style type="text/css">
	.st0{fill:none;stroke:#0006F9;stroke-width:0.5;stroke-miterlimit:10;}
	.st1{fill:#002F8E;}
	.st2{fill:#0006F9;}
	.st3{fill:none;stroke:#2D78A9;stroke-miterlimit:10;}
	.st4{fill:#448BCA;}
	.st5{fill:#50DEFF;}
	.st6{fill:#FFFFFF;}
	.st7{fill:#CAF4FF;}
	.st8{fill:none;stroke:#0006F9;stroke-width:2;stroke-miterlimit:10;}
	.st9{fill:none;stroke:#0006F9;stroke-width:5;stroke-miterlimit:10;}
</style>
<line class="st0" x1="1089.6" y1="112.2" x2="1677.3" y2="-372.4"/>
<line class="st0" x1="329.6" y1="645.9" x2="1541.8" y2="-786.7"/>
<line class="st0" x1="447.2" y1="-809.8" x2="1225.3" y2="158.7"/>
<line class="st0" x1="938.8" y1="239" x2="198.3" y2="-344"/>
<g>
	<g>
		<polygon class="st1" points="1084.1,810.1 1160.6,792.5 1160.6,779.2 1095.3,794.8 1095.3,636.1 1160.6,613.3 1160.6,600.1 
			1084.1,627.4 		"/>
		<polygon class="st1" points="1177.6,607.4 1250.8,581.9 1250.8,757.7 1206.8,768.2 1192.6,757.8 1172,762.9 1197.8,784 
			1264.9,768.6 1264.9,562.8 1177.6,594 		"/>
	</g>
	<g>
		<path class="st1" d="M1111.8,705.4c3.2-1,6.2-3.5,8.1-6.9l0.2-0.3l-2.9-2.1l-0.2,0.4c-1.2,2.3-3.1,4-5.2,4.6
			c-3.5,1-6.3-1.2-6.3-5.1c0-3.8,2.8-7.8,6.3-8.9c1-0.3,2.1-0.4,3-0.1l0.2,0.1l2.9-4l-0.3-0.1c-1.7-0.7-3.7-0.8-5.7-0.1
			c-5.6,1.8-10.1,8.2-10.1,14.4C1101.7,703.4,1106.2,707.1,1111.8,705.4z"/>
		<path class="st1" d="M1140,678.2l-2.9,4l0.2,0.2c0.8,1,1.2,2.2,1.2,3.7c0,3.9-2.9,8-6.5,9.1c-3.6,1.1-6.5-1.2-6.5-5.1
			c0-3.9,2.9-7.9,6.5-9c1-0.3,1.9-0.4,2.9-0.2l0.2,0l2.9-4.1l-0.3-0.1c-1.7-0.6-3.6-0.7-5.6,0c-5.8,1.8-10.4,8.3-10.4,14.6
			c0,6.3,4.7,10,10.4,8.3c5.8-1.7,10.6-8.3,10.6-14.7c0-2.6-0.8-4.8-2.3-6.4L1140,678.2z"/>
		<path class="st1" d="M1164.4,704.5l-3,4l0.2,0.2c0.8,1,1.2,2.3,1.2,3.8c0,4-3,8.1-6.7,9.1c-3.7,1-6.7-1.4-6.7-5.3
			c0-3.9,3-8,6.7-9.1c1-0.3,2-0.3,2.9-0.1l0.2,0.1l3-4.1l-0.4-0.1c-1.8-0.7-3.8-0.7-5.8-0.1c-6,1.7-10.8,8.3-10.8,14.7
			c0,6.4,4.8,10.2,10.8,8.6c6-1.6,10.9-8.2,10.9-14.7c0-2.6-0.8-4.9-2.3-6.5L1164.4,704.5z"/>
		<path class="st1" d="M1216.1,654.6l-3.2,4.3l0.2,0.2c0.8,1,1.3,2.3,1.3,3.8c0,4.1-3.2,8.4-7.2,9.6c-3.9,1.2-7.1-1.2-7.1-5.3
			c0-4.1,3.2-8.4,7.1-9.6c1.1-0.3,2.2-0.4,3.2-0.2l0.2,0l3.2-4.4l-0.4-0.1c-1.9-0.7-4-0.6-6.2,0.1c-6.4,2-11.5,8.9-11.5,15.5
			c0,6.6,5.1,10.4,11.5,8.5c6.4-1.9,11.7-8.9,11.7-15.6c0-2.7-0.9-5-2.5-6.7L1216.1,654.6z"/>
		<path class="st1" d="M1111.4,729.6l4.8-1.3v2.4c-1.2,1.6-2.7,2.7-4.3,3.1c-3.5,1-6.3-1.4-6.3-5.2c0-3.8,2.8-7.8,6.3-8.8
			c1-0.3,1.9-0.3,2.8-0.1l0.2,0.1l2.9-4l-0.3-0.1c-1.6-0.7-3.5-0.7-5.5-0.2c-5.6,1.6-10.1,8-10.1,14.1c0,6.2,4.5,10,10.1,8.4
			c3.4-0.9,6.6-3.7,8.5-7.3l0.1-0.1v-8.3l-8.9,2.5V729.6z"/>
		<polygon class="st1" points="1145.4,672.1 1145.4,695.5 1149.8,694.2 1149.8,681.8 1156.3,686.6 1162.9,677.8 1162.9,690.3 
			1167.4,688.9 1167.4,665.2 1156.3,680 		"/>
		<polygon class="st1" points="1170.1,664.3 1170.1,688.1 1174.6,686.8 1174.6,674.2 1181.4,679 1188.2,670 1188.2,682.8 
			1192.8,681.4 1192.8,657.2 1181.4,672.3 		"/>
		<polygon class="st1" points="1238.1,643.4 1238.1,657.1 1222.1,647.8 1222.1,672.7 1226.9,671.3 1226.9,657.8 1243,666.9 
			1243,641.9 		"/>
		<polygon class="st1" points="1212.6,699.9 1197.1,690.3 1197.1,714.8 1201.8,713.5 1201.8,700.3 1217.4,709.7 1217.4,685 
			1212.6,686.4 		"/>
		<path class="st1" d="M1141.3,714.9c0-5.7-4.2-6.3-6.2-5.8l-11.6,3.4v22.8l4.2-1.2v-7.4l4.9-1.4l4.3,6.2l5.2-1.4l-5-6.3
			C1138.2,722.9,1141.3,719.7,1141.3,714.9z M1135,720.1l-7.2,2v-6.3l7.2-2.1c0.3,0.1,1.8,0.8,1.9,2.3
			C1137.1,717.2,1136.4,718.5,1135,720.1z"/>
		<path class="st1" d="M1231,681l-9,2.6v24.3l9-2.5c6.6-1.8,12-8.8,12-15.6C1243,683.1,1237.6,679.1,1231,681z M1231,700.8l-4.2,1.2
			v-15.1l4.2-1.2c4.1-1.2,7.4,1.3,7.4,5.5C1238.4,695.3,1235.1,699.7,1231,700.8z"/>
		<path class="st1" d="M1186.6,707.1c0,3.1-2.4,6.3-5.4,7.2c-3,0.8-5.3-1-5.3-4.2V697l-4.5,1.3v13.1c0,5.7,4.4,9.2,9.9,7.7
			c5.5-1.5,10-7.5,10-13.3v-13.3l-4.6,1.3V707.1z"/>
	</g>
</g>
<polygon class="st2" points="1060.1,837.5 1286,803.7 1698.9,926.4 1286.6,790.3 "/>
<polygon class="st2" points="1294.8,247.7 1286.6,798.1 1286.6,247.7 "/>
<polygon class="st2" points="1453,442.6 1447.6,640.2 1447.6,442.6 "/>
<polygon class="st2" points="1065.4,836.6 1060.1,837.5 1060.1,837.5 1061.7,613.3 1063.1,612.8 "/>
<polygon class="st2" points="1551.8,567.1 1546.9,1027.7 1547,563.6 "/>
<polygon class="st2" points="1383.9,1064.3 1383.9,393.2 1391.5,1064.3 "/>
<polygon class="st2" points="1502.3,1046.7 1502.3,533.3 1508.8,1046.7 "/>
<polygon class="st2" points="755.8,1062.9 755.8,844.1 758.5,843.5 761.2,1062.9 "/>
<polygon class="st2" points="563.4,1047 567.2,585.6 571,1047 "/>
<polygon class="st2" points="385.2,585.6 385.2,1010 379.9,590.5 "/>
<polygon class="st2" points="384.3,581.1 488.2,610.1 486.8,615.4 385.5,588.2 238.9,754.4 "/>
<polygon class="st2" points="915.1,534 915.1,803.5 912.6,804.3 904.5,541.9 "/>
<polygon class="st2" points="1061.7,613.3 915.2,542.2 925.5,534.9 1061.7,610.8 "/>
<polygon class="st2" points="1061.7,613.3 1061.7,610.8 1275.6,516.8 1286.6,525.2 "/>
<polygon class="st2" points="1160.6,413.6 1147.8,403.5 1137.2,409.1 171.8,915.6 289.9,856.3 910,544.9 1148,420.2 1693.6,833.3 
	"/>
<polygon class="st2" points="1693.6,741.5 1172,92.4 1172,92.4 1148.8,63.4 1143.7,67.6 1143.7,67.6 170.7,869.8 1148,85.8 "/>
<polygon class="st2" points="1134.6,75.2 1144.4,405.3 1148,403.5 1148,75.2 "/>
<polygon class="st2" points="1277.3,255.8 1157.7,113.4 1157.7,395.9 1160.3,398 1164,134 1277.3,257.5 "/>
<polygon class="st2" points="1053,625.1 925.2,563.2 925.2,786.2 927.6,786.9 929.9,575.9 1053,626.3 "/>
<polygon class="st2" points="1379.5,606.4 1295.9,544.4 1295.9,787.2 1297.6,787.2 1300,556.9 1378.2,607.4 "/>
<polygon class="st2" points="1390.4,586.2 1390.4,389.8 1443.6,453.1 1394.3,405.7 "/>
<polygon class="st2" points="1507.2,682.1 1507.2,527.3 1543.6,571 1510,537.2 "/>
<polygon class="st2" points="1584.1,750.1 1556.7,758.9 1582.9,747.1 "/>
<polygon class="st2" points="1547.8,882.2 1510.4,894.5 1546.2,878.1 "/>
<path class="st3" d="M804.6,1057.9"/>
<rect x="1184.1" y="878.8" class="st1" width="11.1" height="153.4"/>
<rect x="905.1" y="878.8" class="st1" width="11.1" height="153.4"/>
<path class="st4" d="M891.6,849.9"/>
<polygon class="st2" points="747.2,1050 747.2,856.2 578.4,889.6 579.3,889.8 743.7,865.2 746.5,1049.2 "/>
<polygon class="st2" points="747.2,1050 578.4,1035.6 578.4,889.6 579.3,889.8 581.7,1029.3 746.5,1049.2 "/>
<polygon class="st2" points="1157.7,395.9 1277.3,490 1277.3,255.8 1275.1,253.2 1273.3,475.8 1157.7,394.3 "/>
<polygon class="st2" points="1390.4,586.2 1443.6,628.9 1443.6,453.1 1440.7,620.8 "/>
<polygon class="st2" points="1507.2,682.1 1543.6,710.7 1543.6,571 1540.9,703.2 "/>
<polygon class="st2" points="623.2,882.4 625.7,1038.3 627,1038.6 627,882.4 "/>
<polygon class="st2" points="687.3,871.8 687.3,1042.7 686.3,1042.7 683.5,871.8 "/>
<polygon class="st2" points="1693.6,1018.9 1152.1,1093.4 171.9,1010 1140.8,1103.2 1140.8,1103.2 1142,1103.3 1149.4,1104.1 
	1149.4,1104.1 1150.1,1104.1 1152.3,1103.8 1152.3,1103.8 "/>
<polygon class="st1" points="1383.9,1061.5 1195.2,1032.3 905.1,1032.3 761.2,1060.1 788.8,1062.5 905.2,1036.2 1195.2,1036.2 
	1354.6,1065.5 "/>
<polygon class="st5" points="1301.6,270.3 1301.6,517 1306.2,520.6 1314.3,285.7 "/>
<polygon class="st5" points="1321.3,294.1 1321.3,532.5 1325.4,535.8 1332.7,307.7 "/>
<polygon class="st5" points="1339.7,316.1 1339.7,547 1343.3,549.8 1349.7,328.2 "/>
<polygon class="st5" points="1356.6,336.5 1356.6,560.3 1359.8,562.8 1365.3,347 "/>
<polygon class="st5" points="1372.1,355.1 1372.1,572.5 1374.8,574.7 1379.6,364.1 "/>
<polygon class="st5" points="1128.1,101.7 1113.1,113.8 1123.1,407.7 1128.1,405.2 "/>
<polygon class="st5" points="1089.6,132.6 1099.6,420.1 1104.4,417.6 1104.4,120.7 "/>
<polygon class="st5" points="1066.2,151.4 1076,432.5 1080.7,430 1080.7,139.7 "/>
<polygon class="st5" points="1042.7,170.2 1052.4,444.9 1057.1,442.4 1057.1,158.7 "/>
<polygon class="st5" points="1019.3,189 1028.8,457.3 1033.4,454.8 1033.4,177.7 "/>
<polygon class="st5" points="995.8,207.8 1005.2,469.6 1009.8,467.2 1009.8,196.6 "/>
<polygon class="st5" points="972.4,226.6 981.6,482 986.1,479.6 986.1,215.6 "/>
<polygon class="st5" points="948.9,245.5 958,494.4 962.5,492 962.5,234.6 "/>
<polygon class="st5" points="925.5,264.3 934.4,506.8 938.8,504.5 938.8,253.6 "/>
<polygon class="st5" points="902,283.1 910.8,519.1 915.2,516.9 915.2,272.6 "/>
<polygon class="st5" points="878.6,301.9 887.2,531.5 891.5,529.3 891.5,291.5 "/>
<polygon class="st5" points="855.1,320.7 863.6,543.9 867.9,541.7 867.9,310.5 "/>
<polygon class="st5" points="831.7,339.5 840,556.3 844.2,554.1 844.2,329.5 "/>
<polygon class="st5" points="808.2,358.4 816.5,568.7 820.6,566.5 820.6,348.5 "/>
<polygon class="st5" points="784.8,377.2 792.9,581 796.9,578.9 796.9,367.4 "/>
<polygon class="st5" points="761.3,396 769.3,593.4 773.2,591.3 773.2,386.4 "/>
<polygon class="st5" points="737.9,414.8 745.7,605.8 749.6,603.7 749.6,405.4 "/>
<polygon class="st5" points="714.4,433.6 722.1,618.2 725.9,616.1 725.9,424.4 "/>
<polygon class="st5" points="691,452.4 698.5,630.6 702.3,628.6 702.3,443.4 "/>
<polygon class="st5" points="667.5,471.3 674.9,642.9 678.6,641 678.6,462.3 "/>
<polygon class="st5" points="644,490.1 651.3,655.3 655,653.4 655,481.3 "/>
<polygon class="st5" points="620.6,508.9 627.7,667.7 631.3,665.8 631.3,500.3 "/>
<polygon class="st5" points="597.1,527.7 604.1,680.1 607.7,678.2 607.7,519.3 "/>
<polygon class="st5" points="573.7,546.5 580.5,692.5 584,690.6 584,538.2 "/>
<polygon class="st5" points="367.4,712.1 370.7,802.5 373.5,801.1 373.5,707.2 "/>
<polygon class="st5" points="347.4,728.1 350.6,814.5 353.2,813.1 353.2,723.4 "/>
<polygon class="st5" points="327.5,744.1 330.6,826.4 333,825.1 333,739.7 "/>
<polygon class="st5" points="307.6,760.1 310.5,838.4 312.8,837.2 312.8,755.9 "/>
<polygon class="st5" points="545,728.2 551.1,869.4 554.8,868.6 554.8,723.3 "/>
<polygon class="st5" points="527.9,736.8 533.6,873.3 537.3,872.5 537.3,732.1 "/>
<polygon class="st5" points="510.8,745.4 516.2,877.2 519.8,876.4 519.8,740.8 "/>
<polygon class="st5" points="493.6,754 498.8,881.2 502.3,880.4 502.3,749.6 "/>
<polygon class="st5" points="476.5,762.6 481.3,885.1 484.8,884.3 484.8,758.4 "/>
<polygon class="st5" points="459.4,771.2 463.9,889 467.3,888.2 467.3,767.2 "/>
<polygon class="st5" points="442.3,779.8 446.5,892.9 449.8,892.2 449.8,776 "/>
<polygon class="st5" points="425.1,788.4 429,896.9 432.3,896.1 432.3,784.7 "/>
<polygon class="st5" points="408,797 411.6,900.8 414.9,900 414.9,793.5 "/>
<polygon class="st5" points="390.9,805.6 394.2,904.7 397.4,904 397.4,802.3 "/>
<polygon class="st5" points="367.5,922.8 370.2,1020.3 373.5,1020.6 373.5,921.5 "/>
<polygon class="st5" points="347.6,926.8 350.2,1020.1 353.2,1020.3 353.2,925.7 "/>
<polygon class="st5" points="327.6,930.8 330.1,1019.8 333,1020 333,929.7 "/>
<polygon class="st5" points="307.6,934.9 310,1019.6 312.8,1019.8 312.8,933.9 "/>
<polygon class="st5" points="1510.4,694.6 1510.4,859.2 1513.1,860.1 1516.2,699 "/>
<polygon class="st5" points="1524.6,705.3 1524.6,863.9 1526.9,864.6 1529.4,709 "/>
<polygon class="st5" points="1538.8,716.1 1538.8,868.6 1540.7,869.2 1542.6,718.9 "/>
<polygon class="st5" points="1558.7,579.3 1558.7,723.5 1560.6,725 1562.4,583.7 "/>
<polygon class="st5" points="1571.4,594.8 1571.4,734.4 1572.9,735.5 1575.1,599.2 "/>
<rect x="920.8" y="893.7" class="st1" width="258.6" height="5.1"/>
<rect x="1035.8" y="884" transform="matrix(-1.836970e-16 1 -1 -1.836970e-16 2063.4692 -36.8463)" class="st1" width="28.7" height="258.6"/>
<g>
	<g>
		<path class="st6" d="M674,512.8v7l-29.4,21.3v85l29.4-18.5v7l-34.6,21.5v-98L674,512.8 M680,500.9l-9.5,7l-34.6,25.3l-2.5,1.8v3
			v98v10.8l9.2-5.7l34.6-21.5l2.8-1.8v-3.3v-7v-10.9l-9.2,5.8l-20.2,12.7v-71.1l26.9-19.5l2.5-1.8v-3.1v-7V500.9L680,500.9z"/>
	</g>
	<g>
		<path class="st6" d="M719.5,479.4v107l-29.1,18.1l-11.4-7.2l9.1-5.8l6.3,3.3l19.1-12v-91.6l-32,23.2v-7.1L719.5,479.4
			 M725.5,467.5l-9.5,7l-38,27.9l-2.5,1.8v3v7.1v11.8l9.5-6.9l22.4-16.3v76.6l-13.4,8.4l-3.2-1.7l-3.1-1.6l-2.9,1.9l-9.1,5.8l-8,5.1
			l8,5l11.4,7.2l3.2,2l3.2-2l29.1-18.1l2.8-1.8v-3.3v-107V467.5L725.5,467.5z"/>
	</g>
	<g>
		<path class="st6" d="M760.2,453c0.2,0,0.4,0,0.5,0l0.6,0l-5.4,10.2l-0.4,0c-1.7,0.2-3.7,1-5.6,2.4c-6.5,4.7-11.7,14.7-11.7,22.3
			c0,5,2.3,7.9,5.7,7.9c1.7,0,3.8-0.7,6-2.2c3.9-2.7,7.6-7.6,9.9-12.9l0.4-1l5.6,2.1l-0.3,0.8c-3.8,8.3-9.4,15.5-15.5,19.6
			c-3.5,2.4-6.7,3.5-9.5,3.5c-5.6,0-9.3-4.6-9.3-12.7c0-12.2,8.4-28.2,18.8-35.9C753.5,454.4,757.1,453,760.2,453 M760.2,447
			c-4.4,0-9.2,1.8-13.8,5.2c-11.9,8.8-21.3,26.7-21.3,40.8c0,5.2,1.3,9.7,3.8,13c2.8,3.7,6.9,5.7,11.5,5.7c4.1,0,8.5-1.5,12.9-4.6
			c6.9-4.8,13.3-12.8,17.5-22.1l0.3-0.8l2.6-5.8l-6-2.3l-5.6-2.1l-5.4-2.1l-2.2,5.3l-0.4,1c-1.8,4.3-4.8,8.3-7.8,10.3
			c-1,0.7-1.7,1-2.1,1.1c-0.1-0.4-0.2-0.9-0.2-1.8c0-5.7,4.3-13.8,9.3-17.4c1.2-0.9,2.2-1.3,2.7-1.3l0.4,0l3.2-0.3l1.5-2.8l5.4-10.2
			l4.4-8.3l-9.4-0.5l-0.6,0C760.8,447,760.5,447,760.2,447L760.2,447z"/>
	</g>
	<g>
		<path class="st6" d="M800.5,424.2l-5.9,10.8l-0.4,0.1c-1.8,0.3-3.7,1.2-5.7,2.6c-7,5.1-12.7,15.6-12.7,23.5c0,5.1,2.4,8,6,8
			c1.9,0,4.2-0.8,6.6-2.5c7.1-5,13-15.6,13-23.7c0-3-0.8-5.3-2.3-6.7l-0.3-0.3l5.8-10.6l0.5,0.3c3,2.1,4.6,6,4.6,11.4
			c0,13.2-9.6,30.5-21.2,38.5c-3.9,2.7-7.5,3.9-10.6,3.9c-5.9,0-9.7-4.6-9.7-12.9c0-12.7,9-29.6,20.3-37.9c4-2.9,7.8-4.5,11.2-4.5
			L800.5,424.2 M802.6,416.6l-0.8,1.5l-1.4,0l-0.7,0c-4.6,0.1-9.7,2-14.7,5.7c-12.8,9.4-22.8,28.1-22.8,42.7c0,5.4,1.4,9.9,3.9,13.3
			c2.8,3.7,7,5.7,11.8,5.7c4.5,0,9.2-1.7,14-5c13.3-9.2,23.8-28.2,23.8-43.4c0-9-3.6-13.6-6.7-16l1.7-3.1l-6,0.1L802.6,416.6
			L802.6,416.6z M782.2,463.1c-0.1-0.3-0.3-0.9-0.3-2c0-6,4.8-14.7,10.2-18.6c1.2-0.9,2.3-1.4,3.2-1.5l0.1,0c0.1,0.3,0.3,0.9,0.3,2
			c0,6.1-4.9,14.9-10.4,18.8C783.8,462.6,782.8,463,782.2,463.1L782.2,463.1z"/>
	</g>
	<g>
		<path class="st6" d="M850.1,459.3c0.1,0,0.1,0,0.2,0l0.8,0l-6.4,11.1l-0.5,0.1c-2,0.3-4.1,1.1-6.2,2.5
			c-7.7,5.1-13.9,15.9-13.9,24.1c0,5.5,2.8,8.6,6.9,8.6c2.1,0,4.5-0.8,7-2.4c7.8-4.9,14.3-15.9,14.3-24.4c0-3.1-0.9-5.6-2.6-7.1
			l-0.3-0.3l6.4-10.9l0.5,0.4c3.3,2.3,5.1,6.5,5.1,12.1c0,13.8-10.6,31.7-23.3,39.6c-4.1,2.5-7.9,3.7-11.2,3.7
			c-6.7,0-11.1-5-11.1-13.9c0-13.3,9.9-30.6,22.3-38.9C842.2,460.8,846.4,459.3,850.1,459.3 M853.7,452.1l-0.7,1.2l-1.8,0l-0.8,0
			l-0.3,0l0,0h0c-4.9,0-10.2,1.9-15.5,5.4c-14,9.3-25,28.6-25,43.9c0,11.9,6.9,19.9,17.1,19.9c4.6,0,9.4-1.6,14.3-4.6
			c14.6-9.1,26.1-28.7,26.1-44.6c0-9.6-4-14.5-7.5-16.9l1.6-2.8l-5.8-0.1L853.7,452.1L853.7,452.1z M830.9,499.8c-0.3,0-0.4,0-0.4,0
			c-0.1-0.1-0.5-0.8-0.5-2.6c0-6.3,5.2-15.2,11.2-19.1c1.4-0.9,2.6-1.4,3.7-1.6l0.5-0.1l0.2,0l0.1,0.1c0.1,0.1,0.5,0.9,0.5,2.6
			c0,6.4-5.4,15.5-11.5,19.3C832.6,499.7,831.4,499.8,830.9,499.8L830.9,499.8z"/>
	</g>
	<g>
		<path class="st6" d="M968.9,301.3l-7.9,13.4l-0.6,0.1c-2.4,0.6-5,1.9-7.6,3.8c-9.4,6.8-17,19.8-17,28.9c0,5.6,2.8,8.5,7.1,8.5
			c2.8,0,6.2-1.2,9.9-3.8c9.6-6.7,17.5-19.9,17.5-29.3c0-3.5-1.1-6-3.2-7.4l-0.4-0.3l7.8-13.1l0.6,0.3c4.1,2,6.2,6.4,6.2,12.7
			c0,15.4-13,36.8-28.6,47.5c-5.9,4.1-11.3,6-15.8,6c-7,0-11.5-4.8-11.5-13.8c0-14.6,12.1-35.4,27.3-46.6c5.3-3.9,10.6-6.3,15.2-6.8
			L968.9,301.3 M980.3,294l-7.1,0.8l-1-0.5l-0.4,0.6l-3.6,0.4l-0.9,0.1c-5.6,0.7-11.8,3.4-18,7.9c-16.7,12.2-29.7,34.8-29.7,51.4
			c0,12,6.9,19.8,17.5,19.8c5.8,0,12.5-2.4,19.2-7.1c8.3-5.7,16-14.2,21.9-23.9c6-10,9.3-20.1,9.3-28.6c0-11.1-5.5-15.9-9.1-17.8
			L980.3,294L980.3,294z M942.9,350.1c-0.4,0-0.6-0.1-0.6-0.1c-0.1-0.1-0.5-0.8-0.5-2.4c0-7.2,6.8-18.4,14.5-24.1
			c2-1.4,3.9-2.4,5.6-2.8l0.6-0.1l1-0.2l0.4,0.3c0.1,0,0.5,0.7,0.5,2.4c0,7.4-7,18.8-15,24.3C945.7,349.9,943.5,350.1,942.9,350.1
			L942.9,350.1z"/>
	</g>
	<g>
		<path class="st6" d="M759.5,519c0.3,0,0.6,0,0.8,0l0.6,0l-5.4,9.9l-0.4,0c-1.7,0.1-3.4,0.8-5.2,2c-6.5,4.3-11.7,13.9-11.7,21.5
			c0,5.2,2.5,8.2,6.2,8.2c1.6,0,3.5-0.6,5.5-1.9c3.1-1.9,6-5.1,8.2-9V545l-9,5.7v-9.3l17-11v16.7l-0.1,0.3
			c-3.7,8.6-9.7,16.1-16.1,20c-3.2,2-6.2,2.9-8.8,2.9c-6,0-10-4.9-10-13.3c0-12.2,8.4-27.7,18.8-34.7
			C753.3,520.2,756.5,519,759.5,519 M759.5,513L759.5,513c-4.1,0-8.6,1.5-12.9,4.4c-12.1,8-21.5,25.5-21.5,39.7
			c0,5.4,1.4,10.1,4,13.5c2.9,3.8,7.2,5.8,12,5.8c3.9,0,7.9-1.3,12-3.8c7.4-4.6,14.3-13.1,18.5-22.8l0.1-0.3l0.5-1.1v-1.2v-16.7v-11
			l-7,4.5l1.1-2l4.5-8.2l-9.3-0.7l-0.6,0C760.3,513,759.9,513,759.5,513L759.5,513z"/>
	</g>
	<g>
		<path class="st6" d="M861.9,374.2v50.9l-9.6,6.6v-26.7l-13.9,24.3l-13.7-4.6v26l-9,6.2v-48.8l22.6,7.3L861.9,374.2 M867.9,351.6
			l-11.2,19.6l-21.2,37.1l-18-5.8l-7.9-2.5v8.3v48.8v11.4l9.4-6.5l9-6.2l2.6-1.8v-3.2v-17.6l5.8,2l4.7,1.6l2.5-4.3l2.7-4.7v4.1v11.4
			l9.4-6.5l9.6-6.6l2.6-1.8v-3.2v-50.9V351.6L867.9,351.6z"/>
	</g>
	<g>
		<path class="st6" d="M918.9,332.4v53.6l-10.6,7.3v-28l-15.4,26.1l-15.2-4.4v27.3l-9.9,6.8v-51.2l25,6.8L918.9,332.4 M924.9,310.3
			l-11.2,19L890,369.7l-20.5-5.6l-7.6-2.1v7.9V421v11.4l9.4-6.5l9.9-6.8l2.6-1.8v-3.2v-19.3l7.5,2.2l4.5,1.3l2.4-4l4.2-7.2v6v11.4
			l9.4-6.5l10.6-7.3l2.6-1.8v-3.2v-53.6V310.3L924.9,310.3z"/>
	</g>
	<g>
		<path class="st6" d="M1043.8,241.5v59.6l-42-3.5V329l-12.2,8.4v-57.4l41.2,3.4v-32.2L1043.8,241.5 M1049.8,229.7l-9.5,7l-13,9.6
			l-2.5,1.8v3v25.7L990,274l-6.5-0.5v6.5v57.4v11.4l9.4-6.5l12.2-8.4l2.6-1.8V329v-24.8l35.5,2.9l6.5,0.5v-6.5v-59.6V229.7
			L1049.8,229.7z"/>
	</g>
	<g>
		<path class="st6" d="M977.8,370.6v56.5l-37.9-7.2v29.7l-11,6.8v-54.6L966,409v-30.6L977.8,370.6 M983.8,359.4l-9.3,6.2l-11.7,7.8
			l-2.7,1.8v3.2v23.3l-30-5.8l-7.1-1.4v7.3v54.6v10.8l9.2-5.7l11-6.8l2.8-1.8v-3.3v-22.5l30.7,5.9l7.1,1.4v-7.3v-56.5V359.4
			L983.8,359.4z"/>
	</g>
	<g>
		<path class="st6" d="M800.9,491.1c3.4,0,6.5,2.1,6.6,9.3c0,9.8-6.2,18.8-8.3,21.5l10,9.6l-10.4,6.5l-8.5-9.9l-9.6,6.1v15.1
			l-8.2,5.1v-46.3l22.7-15.1C796.5,491.9,798.7,491.1,800.9,491.1 M780.6,524.8l14.2-9.2c2.7-4.2,4-7.4,3.9-9.7
			c-0.2-3-3.1-3.3-3.8-3.4l-14.3,9.4V524.8 M800.9,485.1c-3.1,0-6.4,1-9.2,2.9L769,503.1l-2.7,1.8v3.2v46.3v10.8l9.2-5.7l8.2-5.1
			l2.8-1.8v-3.3v-11.8l2.4-1.5l5.2,6l3.3,3.9l4.4-2.7l10.4-6.5l6.6-4.1l-5.6-5.4l-6.3-6.1c3-4.9,6.5-12.4,6.5-20.7
			C813.4,489.1,806.9,485.1,800.9,485.1L800.9,485.1z"/>
	</g>
	<g>
		<path class="st6" d="M1030.5,340.7c8,0,13.2,5.2,13.2,14.9c0,16.1-14.4,38.2-31.6,48.9l-22.9,14.2v-56l22.9-15.3
			C1019,342.9,1025.3,340.7,1030.5,340.7 M1001.3,400.5l10.8-6.8c10.6-6.7,19.3-20.2,19.3-30.1c0-6-3.3-9.2-8.2-9.2
			c-3.2,0-7,1.3-11.1,4l-10.8,7.1V400.5 M1030.5,334.7c-6.6,0-14.1,2.7-21.7,7.7l-22.9,15.3l-2.7,1.8v3.2v56v10.8l9.2-5.7l22.9-14.2
			c9.1-5.6,17.6-14.2,24.1-24.2c6.6-10.3,10.3-20.8,10.3-29.7C1049.8,342.9,1042.2,334.7,1030.5,334.7L1030.5,334.7z M1007.3,368.7
			l8.1-5.4c2.9-1.9,5.8-3,7.8-3c1.1,0,2.2,0,2.2,3.2c0,6.9-6.8,18.9-16.5,25l-1.6,1V368.7L1007.3,368.7z"/>
	</g>
	<g>
		<path class="st6" d="M915.2,412.1v29.3c0,12.9-10.3,29.7-22.7,37.4c-4.2,2.6-8,3.8-11.3,3.8c-6.3,0-10.5-4.5-10.5-12.6v-28.2
			l9.9-6.6v28.5c0,4.4,2.3,6.8,5.7,6.8c1.8,0,3.9-0.7,6.2-2.1c6.7-4.2,12.2-13.3,12.2-20.2v-29.1L915.2,412.1 M921.2,400.9l-9.3,6.2
			l-10.6,7l-2.7,1.8v3.2v29.1c0,4.8-4.5,12-9.4,15.1c-1.3,0.8-2.2,1.1-2.7,1.2c0-0.2-0.1-0.5-0.1-0.8v-28.5V424l-9.3,6.2l-9.9,6.6
			l-2.7,1.8v3.2v28.2c0,11.2,6.6,18.6,16.5,18.6c4.6,0,9.5-1.6,14.5-4.7c14.3-8.9,25.6-27.6,25.6-42.5v-29.3V400.9L921.2,400.9z"/>
	</g>
</g>
<g>
	<polygon class="st1" points="639.4,636.1 674,614.7 674,607.6 644.6,626.1 644.6,541.1 674,519.8 674,512.8 639.4,538.1 	"/>
	<polygon class="st1" points="681.5,514.3 713.5,491.1 713.5,582.8 694.4,594.8 688.1,591.5 679,597.3 690.4,604.4 719.5,586.4 
		719.5,479.4 681.5,507.2 	"/>
	<path class="st1" d="M749.9,502.2c6-4.2,11.7-11.3,15.5-19.6l0.3-0.8l-5.6-2.1l-0.4,1c-2.3,5.4-6,10.2-9.9,12.9
		c-6.5,4.5-11.7,2-11.7-5.6c0-7.6,5.2-17.6,11.7-22.3c1.9-1.4,3.9-2.2,5.6-2.4l0.4,0l5.4-10.2l-0.6,0c-3.2-0.2-7,1.2-10.8,4.1
		c-10.5,7.7-18.8,23.7-18.8,35.9C731.1,505.2,739.4,509.4,749.9,502.2z"/>
	<path class="st1" d="M804.7,425.4l-5.8,10.6l0.3,0.3c1.5,1.4,2.3,3.7,2.3,6.7c0,8.1-5.9,18.8-13,23.7c-7,4.9-12.7,2.4-12.7-5.5
		c0-7.9,5.6-18.4,12.7-23.5c2-1.4,3.9-2.3,5.7-2.6l0.4-0.1l5.9-10.8l-0.7,0c-3.4,0.1-7.3,1.6-11.2,4.5
		c-11.3,8.3-20.3,25.2-20.3,37.9c0,12.7,9,16.8,20.3,9c11.6-8,21.2-25.3,21.2-38.5c0-5.4-1.6-9.3-4.6-11.4L804.7,425.4z"/>
	<path class="st1" d="M855.6,460.8l-6.4,10.9l0.3,0.3c1.7,1.5,2.6,3.9,2.6,7.1c0,8.5-6.5,19.5-14.3,24.4c-7.7,4.9-13.9,2-13.9-6.2
		c0-8.3,6.2-19.1,13.9-24.1c2.2-1.4,4.2-2.3,6.2-2.5l0.5-0.1l6.4-11.1l-0.8,0c-3.7-0.1-8,1.5-12.4,4.4
		c-12.4,8.3-22.3,25.7-22.3,38.9c0,13.3,9.9,17.9,22.3,10.2c12.7-7.9,23.3-25.7,23.3-39.6c0-5.7-1.8-9.9-5.1-12.1L855.6,460.8z"/>
	<path class="st1" d="M974.6,302.1l-7.8,13.1l0.4,0.3c2.1,1.4,3.2,3.9,3.2,7.4c0,9.4-7.9,22.6-17.5,29.3c-9.4,6.6-17,4.4-17-4.7
		c0-9.1,7.6-22.1,17-28.9c2.6-1.9,5.2-3.2,7.6-3.8l0.6-0.1l7.9-13.4l-0.9,0.1c-4.6,0.5-9.8,2.9-15.2,6.8
		c-15.2,11.2-27.3,31.9-27.3,46.6c0,14.6,12.1,18.3,27.3,7.8c15.6-10.7,28.6-32.2,28.6-47.5c0-6.3-2.2-10.7-6.2-12.7L974.6,302.1z"
		/>
	<path class="st1" d="M749.1,550.8l9-5.7v4.8c-2.2,3.9-5.2,7.1-8.2,9c-6.5,4.1-11.7,1.2-11.7-6.4c0-7.6,5.2-17.2,11.7-21.5
		c1.8-1.2,3.6-1.9,5.2-2l0.4,0l5.4-9.9l-0.6,0c-3.1-0.2-6.7,0.9-10.4,3.4c-10.5,7-18.8,22.5-18.8,34.7c0,12.2,8.4,16.9,18.8,10.4
		c6.4-4,12.4-11.4,16.1-20l0.1-0.3v-16.7l-17,11V550.8z"/>
	<polygon class="st1" points="815.7,408.1 815.7,456.9 824.7,450.7 824.7,424.8 838.4,429.4 852.3,405.1 852.3,431.7 861.9,425.1 
		861.9,374.2 838.3,415.5 	"/>
	<polygon class="st1" points="867.9,369.8 867.9,421 877.8,414.2 877.8,386.9 892.9,391.3 908.3,365.2 908.3,393.2 918.9,385.9 
		918.9,332.4 892.8,376.7 	"/>
	<polygon class="st1" points="1030.7,251.1 1030.7,283.4 989.5,279.9 989.5,337.4 1001.7,329 1001.7,297.7 1043.8,301.2 
		1043.8,241.5 	"/>
	<polygon class="st1" points="966,409 928.9,401.9 928.9,456.4 939.9,449.6 939.9,419.9 977.8,427.1 977.8,370.6 966,378.4 	"/>
	<path class="st1" d="M807.4,500.4c0-11.7-8.6-10-12.4-7.4l-22.7,15.1v46.3l8.2-5.1v-15.1l9.6-6.1l8.5,9.9l10.4-6.5l-10-9.6
		C801.2,519.2,807.4,510.2,807.4,500.4z M794.8,515.6l-14.2,9.2V512l14.3-9.4c0.7,0,3.6,0.3,3.8,3.4
		C798.8,508.2,797.5,511.4,794.8,515.6z"/>
	<path class="st1" d="M1012.2,347.4l-22.9,15.3v56l22.9-14.2c17.2-10.7,31.6-32.7,31.6-48.9C1043.8,339.5,1029.4,336,1012.2,347.4z
		 M1012.2,393.6l-10.8,6.8v-35l10.8-7.1c10.6-7,19.3-4.7,19.3,5.2C1031.5,373.4,1022.8,387,1012.2,393.6z"/>
	<path class="st1" d="M904.7,448.2c0,6.9-5.5,15.9-12.2,20.2c-6.6,4.2-11.9,2-11.9-4.7v-28.5l-9.9,6.6v28.2
		c0,12.4,9.7,16.4,21.9,8.8c12.4-7.7,22.7-24.6,22.7-37.4v-29.3l-10.6,7V448.2z"/>
</g>
<polygon class="st7" points="1268.8,414.7 1191.5,176.1 1168.5,152.4 1168.2,168.3 1263.2,461.7 1267.9,465 "/>
<polygon class="st7" points="1167.4,204.3 1247.1,450.5 1257,457.3 1167.9,182.2 "/>
<polygon class="st7" points="937.5,582.1 1044.6,806 1045.6,763.3 964.1,593.1 "/>
<polygon class="st7" points="933.3,599.9 1032.7,807.6 1041.4,809.6 933.6,584.2 "/>
<polygon class="st7" points="629.4,974.9 629.4,1002.1 666.7,1037.4 684,1039.6 683.9,1026.4 "/>
<polygon class="st7" points="622.8,968.6 581.8,929.8 582.5,957.7 623.5,996.5 "/>
<polygon class="st7" points="622.4,951.9 581.4,913.2 581.7,923.4 622.6,962.1 "/>
<polygon class="st7" points="689.8,1025.7 707.6,1042.5 719.7,1044 689.8,1015.7 "/>
<polygon class="st7" points="683.8,1020 683.7,1010 629.4,958.6 629.4,968.6 "/>
<polygon class="st7" points="682.5,936.2 682.2,926 637.2,883.4 629.4,884.6 629.4,886 "/>
<polygon class="st7" points="689.8,933.2 689.8,943.1 743.7,994.2 743.5,984 "/>
<polygon class="st2" points="925.2,786.2 1053,823 1053,625.1 1051.7,624.5 1048.2,813.8 925.2,784 "/>
<polygon class="st2" points="1295.9,787.2 1379.5,814.8 1379.5,606.4 1378.2,607.4 1376.8,808.1 1297.6,786 "/>
<g>
	<rect x="1049.1" y="902.6" class="st1" width="2.2" height="93.6"/>
</g>
<g>
	<rect x="962.9" y="902.6" class="st1" width="2.2" height="93.6"/>
</g>
<g>
	<rect x="1135.3" y="902.6" class="st1" width="2.2" height="93.6"/>
</g>
<g>
	<polygon class="st1" points="1096,996.2 1093.3,996.2 1090.5,902.6 1096,902.6 	"/>
</g>
<g>
	<polygon class="st1" points="1007.1,996.2 1004.3,996.2 1004.3,902.6 1009.8,902.6 	"/>
</g>
<polygon class="st2" points="1497.9,872.6 1394.6,841.9 1396.1,1054.9 1397.4,1054.7 1398.2,851.1 1496.9,873.5 "/>
<polygon class="st2" points="1396.1,1054.9 1497.9,1040.9 1497.9,872.6 1496.9,873.5 1494.4,1035.6 1396.1,1053.8 "/>
<polygon class="st1" points="769.8,1050.6 775.2,1049.5 782.2,849 769.8,846 "/>
<polygon class="st1" points="793.5,1046.5 798.3,1045.5 804.9,854.6 793.3,851.7 "/>
<polygon class="st1" points="817.3,1042.5 821.5,1041.6 827.5,860.2 816.8,857.5 "/>
<polygon class="st1" points="841,1038.4 844.6,1037.6 850.2,865.8 840.3,863.3 "/>
<polygon class="st1" points="864.7,1034.3 867.7,1033.7 872.8,871.4 863.8,869.1 "/>
<polygon class="st1" points="887.3,874.9 888.5,1030.2 890.9,1029.7 895.5,877 "/>
<polygon class="st1" points="1360.8,837.6 1367.8,1051.5 1373.2,1052.2 1373.2,834.5 1373.2,834.5 "/>
<polygon class="st1" points="1342.1,1047.8 1347.1,1048.5 1347.3,841 1335.5,844 "/>
<polygon class="st1" points="1316.5,1044.1 1321,1044.7 1321.4,847.5 1310.2,850.3 "/>
<polygon class="st1" points="1290.8,1040.4 1295,1041 1295.5,854 1284.9,856.7 "/>
<polygon class="st1" points="1265.2,1036.7 1268.9,1037.2 1269.6,860.6 1259.6,863.1 "/>
<polygon class="st1" points="1239.5,1033 1242.8,1033.5 1243.7,867.1 1234.4,869.5 "/>
<polygon class="st1" points="1213.8,1029.3 1216.8,1029.7 1217.8,873.7 1209.1,875.8 "/>
<polygon class="st5" points="395,680.7 401.1,675.7 403.8,593.4 394.8,591 "/>
<polygon class="st5" points="418.6,661.3 424.7,656.3 426.5,599.4 418.4,597.2 "/>
<polygon class="st5" points="442.2,641.9 448.2,636.9 449.2,605.4 441.9,603.5 "/>
<polygon class="st5" points="465.6,609.8 465.7,622.5 471.7,617.5 471.9,611.5 "/>
<g>
	<polygon class="st2" points="566.5,726 849.5,586.2 568.3,729.6 	"/>
</g>
<g>
	<polygon class="st2" points="913.6,787.7 631.3,849.2 912.7,783.8 	"/>
</g>
<path class="st8" d="M376.3,812.9"/>
<path class="st8" d="M317.9,842.2"/>
<g>
	<polygon class="st2" points="383.3,817 324.7,845.3 382.4,815.2 	"/>
</g>
<g>
	<polygon class="st2" points="289.3,928.4 347.4,916.3 289.8,930.3 	"/>
</g>
<polygon class="st2" points="1421.5,718.7 1502.3,688.4 1421.5,724.9 1387.3,698.2 "/>
<polygon class="st1" points="1383.9,832.8 1195.2,879.4 905.1,879.4 758.5,843.5 785.2,838.1 905.1,875.1 1195.2,875 1363.4,826.7 
	"/>
<polygon class="st2" points="1060.1,837.5 918.3,795.9 915.3,795.1 909.1,796.5 170.7,962.6 916.3,811.5 1062.8,841.4 1286,803.7 
	"/>
<polygon class="st2" points="1423.7,723.1 1423.7,835.5 1419.7,720.6 "/>
<line class="st9" x1="383.2" y1="661.3" x2="383.2" y2="-52.5"/>
<line class="st9" x1="1584.1" y1="1242.2" x2="1584.1" y2="84.4"/>
</svg>
