<?xml version="1.0" encoding="utf-8"?>
<!-- Generator: Adobe Illustrator 25.4.0, SVG Export Plug-In . SVG Version: 6.00 Build 0)  -->
<svg version="1.1" id="Layer_1" xmlns="http://www.w3.org/2000/svg" xmlns:xlink="http://www.w3.org/1999/xlink" x="0px" y="0px"
	 viewBox="0 0 1261.2 365.4" style="enable-background:new 0 0 1261.2 365.4;" xml:space="preserve">
<style type="text/css">
	.st0{fill:#0042BF;}
</style>
<path class="st0" d="M210.2,56.9h1051v-50h-1051c-57.3,0-104,46.7-104,104s46.7,104,104,104c22.8,0,41.3,18.5,41.3,41.3
	s-18.5,41.3-41.3,41.3v0.1H0v50h210.2v-0.1c50.3,0,91.3-41,91.3-91.3s-41-91.3-91.3-91.3c-29.8,0-54-24.2-54-54
	S180.4,56.9,210.2,56.9z"/>
<g>
	<g>
		<path class="st0" d="M674.1,164.4c36.7,0,66.6,29.9,66.6,66.6s-29.9,66.6-66.6,66.6c-36.7,0-66.6-29.9-66.6-66.6
			S637.4,164.4,674.1,164.4 M674.1,114.4c-64.4,0-116.6,52.2-116.6,116.6s52.2,116.6,116.6,116.6S790.7,295.4,790.7,231
			S738.6,114.4,674.1,114.4L674.1,114.4z"/>
	</g>
</g>
<g>
	<path class="st0" d="M934.4,345.3c-63,0-114.3-51.3-114.3-114.3V114.4h50V231c0,35.5,28.8,64.3,64.3,64.3s64.3-28.8,64.3-64.3
		V114.4h50V231C1048.7,294,997.4,345.3,934.4,345.3z"/>
</g>
<g>
	<polygon class="st0" points="1257.2,345.3 1082.6,345.3 1082.6,114.4 1132.6,114.4 1132.6,295.3 1257.2,295.3 	"/>
</g>
<polygon class="st0" points="538.9,166.8 538.9,116.8 335.3,116.8 335.3,345.3 538.9,345.3 538.9,295.3 385.3,295.3 385.3,256.1 
	504,256.1 504,206.1 385.3,206.1 385.3,166.8 "/>
</svg>
