<?xml version="1.0" encoding="utf-8"?>
<!-- Generator: Adobe Illustrator 25.4.0, SVG Export Plug-In . SVG Version: 6.00 Build 0)  -->
<svg version="1.1" id="Layer_1" xmlns="http://www.w3.org/2000/svg" xmlns:xlink="http://www.w3.org/1999/xlink" x="0px" y="0px"
	 viewBox="0 0 1920 1080" style="enable-background:new 0 0 1920 1080;" xml:space="preserve">
<style type="text/css">
	.st0{opacity:0.6;fill:none;stroke:#0042BF;stroke-width:0.5;}
	.st1{font-family:'Cafe24Ohsquare';}
	.st2{font-size:61.4632px;}
</style>
<text transform="matrix(0.9762 0 -0.2169 0.9762 22.6585 64.4653)" class="st0 st1 st2">Culture</text>
<text transform="matrix(0.9762 0 -0.2169 0.9762 304.1476 64.4653)" class="st0 st1 st2">Culture</text>
<text transform="matrix(0.9762 0 -0.2169 0.9762 585.6367 64.4653)" class="st0 st1 st2">Culture</text>
<text transform="matrix(0.9762 0 -0.2169 0.9762 867.1259 64.4653)" class="st0 st1 st2">Culture</text>
<text transform="matrix(0.9762 0 -0.2169 0.9762 1148.6149 64.4653)" class="st0 st1 st2">Culture</text>
<text transform="matrix(0.9762 0 -0.2169 0.9762 1430.104 64.4653)" class="st0 st1 st2">Culture</text>
<text transform="matrix(0.9762 0 -0.2169 0.9762 1711.5931 64.4653)" class="st0 st1 st2">Culture</text>
<text transform="matrix(0.9762 0 -0.2169 0.9762 1993.0823 64.4653)" class="st0 st1 st2">Culture</text>
<text transform="matrix(0.9762 0 -0.2169 0.9762 2274.5713 64.4653)" class="st0 st1 st2">Culture</text>
<text transform="matrix(0.9762 0 -0.2169 0.9762 -110.7104 130.1833)" class="st0 st1 st2">Culture</text>
<text transform="matrix(0.9762 0 -0.2169 0.9762 170.7787 130.1833)" class="st0 st1 st2">Culture</text>
<text transform="matrix(0.9762 0 -0.2169 0.9762 452.2679 130.1833)" class="st0 st1 st2">Culture</text>
<text transform="matrix(0.9762 0 -0.2169 0.9762 733.757 130.1833)" class="st0 st1 st2">Culture</text>
<text transform="matrix(0.9762 0 -0.2169 0.9762 1015.2461 130.1833)" class="st0 st1 st2">Culture</text>
<text transform="matrix(0.9762 0 -0.2169 0.9762 1296.7351 130.1833)" class="st0 st1 st2">Culture</text>
<text transform="matrix(0.9762 0 -0.2169 0.9762 1578.2242 130.1833)" class="st0 st1 st2">Culture</text>
<text transform="matrix(0.9762 0 -0.2169 0.9762 1859.7134 130.1833)" class="st0 st1 st2">Culture</text>
<text transform="matrix(0.9762 0 -0.2169 0.9762 2141.2024 130.1833)" class="st0 st1 st2">Culture</text>
<text transform="matrix(0.9762 0 -0.2169 0.9762 22.6585 196.2848)" class="st0 st1 st2">Culture</text>
<text transform="matrix(0.9762 0 -0.2169 0.9762 304.1476 196.2848)" class="st0 st1 st2">Culture</text>
<text transform="matrix(0.9762 0 -0.2169 0.9762 585.6367 196.2848)" class="st0 st1 st2">Culture</text>
<text transform="matrix(0.9762 0 -0.2169 0.9762 867.1259 196.2848)" class="st0 st1 st2">Culture</text>
<text transform="matrix(0.9762 0 -0.2169 0.9762 1148.6149 196.2848)" class="st0 st1 st2">Culture</text>
<text transform="matrix(0.9762 0 -0.2169 0.9762 1430.104 196.2848)" class="st0 st1 st2">Culture</text>
<text transform="matrix(0.9762 0 -0.2169 0.9762 1711.5931 196.2848)" class="st0 st1 st2">Culture</text>
<text transform="matrix(0.9762 0 -0.2169 0.9762 1993.0823 196.2848)" class="st0 st1 st2">Culture</text>
<text transform="matrix(0.9762 0 -0.2169 0.9762 2274.5713 196.2848)" class="st0 st1 st2">Culture</text>
<text transform="matrix(0.9762 0 -0.2169 0.9762 -110.7104 262.0028)" class="st0 st1 st2">Culture</text>
<text transform="matrix(0.9762 0 -0.2169 0.9762 170.7787 262.0028)" class="st0 st1 st2">Culture</text>
<text transform="matrix(0.9762 0 -0.2169 0.9762 452.2679 262.0028)" class="st0 st1 st2">Culture</text>
<text transform="matrix(0.9762 0 -0.2169 0.9762 733.757 262.0028)" class="st0 st1 st2">Culture</text>
<text transform="matrix(0.9762 0 -0.2169 0.9762 1015.2461 262.0028)" class="st0 st1 st2">Culture</text>
<text transform="matrix(0.9762 0 -0.2169 0.9762 1296.7351 262.0028)" class="st0 st1 st2">Culture</text>
<text transform="matrix(0.9762 0 -0.2169 0.9762 1578.2242 262.0028)" class="st0 st1 st2">Culture</text>
<text transform="matrix(0.9762 0 -0.2169 0.9762 1859.7134 262.0028)" class="st0 st1 st2">Culture</text>
<text transform="matrix(0.9762 0 -0.2169 0.9762 2141.2024 262.0028)" class="st0 st1 st2">Culture</text>
<text transform="matrix(0.9762 0 -0.2169 0.9762 22.6585 328.1043)" class="st0 st1 st2">Culture</text>
<text transform="matrix(0.9762 0 -0.2169 0.9762 304.1476 328.1043)" class="st0 st1 st2">Culture</text>
<text transform="matrix(0.9762 0 -0.2169 0.9762 585.6367 328.1043)" class="st0 st1 st2">Culture</text>
<text transform="matrix(0.9762 0 -0.2169 0.9762 867.1259 328.1043)" class="st0 st1 st2">Culture</text>
<text transform="matrix(0.9762 0 -0.2169 0.9762 1148.6149 328.1043)" class="st0 st1 st2">Culture</text>
<text transform="matrix(0.9762 0 -0.2169 0.9762 1430.104 328.1043)" class="st0 st1 st2">Culture</text>
<text transform="matrix(0.9762 0 -0.2169 0.9762 1711.5931 328.1043)" class="st0 st1 st2">Culture</text>
<text transform="matrix(0.9762 0 -0.2169 0.9762 1993.0823 328.1043)" class="st0 st1 st2">Culture</text>
<text transform="matrix(0.9762 0 -0.2169 0.9762 2274.5713 328.1043)" class="st0 st1 st2">Culture</text>
<text transform="matrix(0.9762 0 -0.2169 0.9762 -110.7104 393.8223)" class="st0 st1 st2">Culture</text>
<text transform="matrix(0.9762 0 -0.2169 0.9762 170.7787 393.8223)" class="st0 st1 st2">Culture</text>
<text transform="matrix(0.9762 0 -0.2169 0.9762 452.2679 393.8223)" class="st0 st1 st2">Culture</text>
<text transform="matrix(0.9762 0 -0.2169 0.9762 733.757 393.8223)" class="st0 st1 st2">Culture</text>
<text transform="matrix(0.9762 0 -0.2169 0.9762 1015.2461 393.8223)" class="st0 st1 st2">Culture</text>
<text transform="matrix(0.9762 0 -0.2169 0.9762 1296.7351 393.8223)" class="st0 st1 st2">Culture</text>
<text transform="matrix(0.9762 0 -0.2169 0.9762 1578.2242 393.8223)" class="st0 st1 st2">Culture</text>
<text transform="matrix(0.9762 0 -0.2169 0.9762 1859.7134 393.8223)" class="st0 st1 st2">Culture</text>
<text transform="matrix(0.9762 0 -0.2169 0.9762 2141.2024 393.8223)" class="st0 st1 st2">Culture</text>
<text transform="matrix(0.9762 0 -0.2169 0.9762 22.6585 459.9238)" class="st0 st1 st2">Culture</text>
<text transform="matrix(0.9762 0 -0.2169 0.9762 304.1476 459.9238)" class="st0 st1 st2">Culture</text>
<text transform="matrix(0.9762 0 -0.2169 0.9762 585.6367 459.9238)" class="st0 st1 st2">Culture</text>
<text transform="matrix(0.9762 0 -0.2169 0.9762 867.1259 459.9238)" class="st0 st1 st2">Culture</text>
<text transform="matrix(0.9762 0 -0.2169 0.9762 1148.6149 459.9238)" class="st0 st1 st2">Culture</text>
<text transform="matrix(0.9762 0 -0.2169 0.9762 1430.104 459.9238)" class="st0 st1 st2">Culture</text>
<text transform="matrix(0.9762 0 -0.2169 0.9762 1711.5931 459.9238)" class="st0 st1 st2">Culture</text>
<text transform="matrix(0.9762 0 -0.2169 0.9762 1993.0823 459.9238)" class="st0 st1 st2">Culture</text>
<text transform="matrix(0.9762 0 -0.2169 0.9762 2274.5713 459.9238)" class="st0 st1 st2">Culture</text>
<text transform="matrix(0.9762 0 -0.2169 0.9762 -110.7104 525.6418)" class="st0 st1 st2">Culture</text>
<text transform="matrix(0.9762 0 -0.2169 0.9762 170.7787 525.6418)" class="st0 st1 st2">Culture</text>
<text transform="matrix(0.9762 0 -0.2169 0.9762 452.2679 525.6418)" class="st0 st1 st2">Culture</text>
<text transform="matrix(0.9762 0 -0.2169 0.9762 733.757 525.6418)" class="st0 st1 st2">Culture</text>
<text transform="matrix(0.9762 0 -0.2169 0.9762 1015.2461 525.6418)" class="st0 st1 st2">Culture</text>
<text transform="matrix(0.9762 0 -0.2169 0.9762 1296.7351 525.6418)" class="st0 st1 st2">Culture</text>
<text transform="matrix(0.9762 0 -0.2169 0.9762 1578.2242 525.6418)" class="st0 st1 st2">Culture</text>
<text transform="matrix(0.9762 0 -0.2169 0.9762 1859.7134 525.6418)" class="st0 st1 st2">Culture</text>
<text transform="matrix(0.9762 0 -0.2169 0.9762 2141.2024 525.6418)" class="st0 st1 st2">Culture</text>
<text transform="matrix(0.9762 0 -0.2169 0.9762 22.6585 591.7433)" class="st0 st1 st2">Culture</text>
<text transform="matrix(0.9762 0 -0.2169 0.9762 304.1476 591.7433)" class="st0 st1 st2">Culture</text>
<text transform="matrix(0.9762 0 -0.2169 0.9762 585.6367 591.7433)" class="st0 st1 st2">Culture</text>
<text transform="matrix(0.9762 0 -0.2169 0.9762 867.1259 591.7433)" class="st0 st1 st2">Culture</text>
<text transform="matrix(0.9762 0 -0.2169 0.9762 1148.6149 591.7433)" class="st0 st1 st2">Culture</text>
<text transform="matrix(0.9762 0 -0.2169 0.9762 1430.104 591.7433)" class="st0 st1 st2">Culture</text>
<text transform="matrix(0.9762 0 -0.2169 0.9762 1711.5931 591.7433)" class="st0 st1 st2">Culture</text>
<text transform="matrix(0.9762 0 -0.2169 0.9762 1993.0823 591.7433)" class="st0 st1 st2">Culture</text>
<text transform="matrix(0.9762 0 -0.2169 0.9762 2274.5713 591.7433)" class="st0 st1 st2">Culture</text>
<text transform="matrix(0.9762 0 -0.2169 0.9762 -110.7104 657.4614)" class="st0 st1 st2">Culture</text>
<text transform="matrix(0.9762 0 -0.2169 0.9762 170.7787 657.4614)" class="st0 st1 st2">Culture</text>
<text transform="matrix(0.9762 0 -0.2169 0.9762 452.2679 657.4614)" class="st0 st1 st2">Culture</text>
<text transform="matrix(0.9762 0 -0.2169 0.9762 733.757 657.4614)" class="st0 st1 st2">Culture</text>
<text transform="matrix(0.9762 0 -0.2169 0.9762 1015.2461 657.4614)" class="st0 st1 st2">Culture</text>
<text transform="matrix(0.9762 0 -0.2169 0.9762 1296.7351 657.4614)" class="st0 st1 st2">Culture</text>
<text transform="matrix(0.9762 0 -0.2169 0.9762 1578.2242 657.4614)" class="st0 st1 st2">Culture</text>
<text transform="matrix(0.9762 0 -0.2169 0.9762 1859.7134 657.4614)" class="st0 st1 st2">Culture</text>
<text transform="matrix(0.9762 0 -0.2169 0.9762 2141.2024 657.4614)" class="st0 st1 st2">Culture</text>
<text transform="matrix(0.9762 0 -0.2169 0.9762 22.6585 723.5629)" class="st0 st1 st2">Culture</text>
<text transform="matrix(0.9762 0 -0.2169 0.9762 304.1476 723.5629)" class="st0 st1 st2">Culture</text>
<text transform="matrix(0.9762 0 -0.2169 0.9762 585.6367 723.5629)" class="st0 st1 st2">Culture</text>
<text transform="matrix(0.9762 0 -0.2169 0.9762 867.1259 723.5629)" class="st0 st1 st2">Culture</text>
<text transform="matrix(0.9762 0 -0.2169 0.9762 1148.6149 723.5629)" class="st0 st1 st2">Culture</text>
<text transform="matrix(0.9762 0 -0.2169 0.9762 1430.104 723.5629)" class="st0 st1 st2">Culture</text>
<text transform="matrix(0.9762 0 -0.2169 0.9762 1711.5931 723.5629)" class="st0 st1 st2">Culture</text>
<text transform="matrix(0.9762 0 -0.2169 0.9762 1993.0823 723.5629)" class="st0 st1 st2">Culture</text>
<text transform="matrix(0.9762 0 -0.2169 0.9762 2274.5713 723.5629)" class="st0 st1 st2">Culture</text>
<text transform="matrix(0.9762 0 -0.2169 0.9762 -110.7104 789.2809)" class="st0 st1 st2">Culture</text>
<text transform="matrix(0.9762 0 -0.2169 0.9762 170.7787 789.2809)" class="st0 st1 st2">Culture</text>
<text transform="matrix(0.9762 0 -0.2169 0.9762 452.2679 789.2809)" class="st0 st1 st2">Culture</text>
<text transform="matrix(0.9762 0 -0.2169 0.9762 733.757 789.2809)" class="st0 st1 st2">Culture</text>
<text transform="matrix(0.9762 0 -0.2169 0.9762 1015.2461 789.2809)" class="st0 st1 st2">Culture</text>
<text transform="matrix(0.9762 0 -0.2169 0.9762 1296.7351 789.2809)" class="st0 st1 st2">Culture</text>
<text transform="matrix(0.9762 0 -0.2169 0.9762 1578.2242 789.2809)" class="st0 st1 st2">Culture</text>
<text transform="matrix(0.9762 0 -0.2169 0.9762 1859.7134 789.2809)" class="st0 st1 st2">Culture</text>
<text transform="matrix(0.9762 0 -0.2169 0.9762 2141.2024 789.2809)" class="st0 st1 st2">Culture</text>
<text transform="matrix(0.9762 0 -0.2169 0.9762 22.6585 855.3824)" class="st0 st1 st2">Culture</text>
<text transform="matrix(0.9762 0 -0.2169 0.9762 304.1476 855.3824)" class="st0 st1 st2">Culture</text>
<text transform="matrix(0.9762 0 -0.2169 0.9762 585.6367 855.3824)" class="st0 st1 st2">Culture</text>
<text transform="matrix(0.9762 0 -0.2169 0.9762 867.1259 855.3824)" class="st0 st1 st2">Culture</text>
<text transform="matrix(0.9762 0 -0.2169 0.9762 1148.6149 855.3824)" class="st0 st1 st2">Culture</text>
<text transform="matrix(0.9762 0 -0.2169 0.9762 1430.104 855.3824)" class="st0 st1 st2">Culture</text>
<text transform="matrix(0.9762 0 -0.2169 0.9762 1711.5931 855.3824)" class="st0 st1 st2">Culture</text>
<text transform="matrix(0.9762 0 -0.2169 0.9762 1993.0823 855.3824)" class="st0 st1 st2">Culture</text>
<text transform="matrix(0.9762 0 -0.2169 0.9762 2274.5713 855.3824)" class="st0 st1 st2">Culture</text>
<text transform="matrix(0.9762 0 -0.2169 0.9762 -110.7104 921.1004)" class="st0 st1 st2">Culture</text>
<text transform="matrix(0.9762 0 -0.2169 0.9762 170.7787 921.1004)" class="st0 st1 st2">Culture</text>
<text transform="matrix(0.9762 0 -0.2169 0.9762 452.2679 921.1004)" class="st0 st1 st2">Culture</text>
<text transform="matrix(0.9762 0 -0.2169 0.9762 733.757 921.1004)" class="st0 st1 st2">Culture</text>
<text transform="matrix(0.9762 0 -0.2169 0.9762 1015.2461 921.1004)" class="st0 st1 st2">Culture</text>
<text transform="matrix(0.9762 0 -0.2169 0.9762 1296.7351 921.1004)" class="st0 st1 st2">Culture</text>
<text transform="matrix(0.9762 0 -0.2169 0.9762 1578.2242 921.1004)" class="st0 st1 st2">Culture</text>
<text transform="matrix(0.9762 0 -0.2169 0.9762 1859.7134 921.1004)" class="st0 st1 st2">Culture</text>
<text transform="matrix(0.9762 0 -0.2169 0.9762 2141.2024 921.1004)" class="st0 st1 st2">Culture</text>
<text transform="matrix(0.9762 0 -0.2169 0.9762 22.6585 987.2019)" class="st0 st1 st2">Culture</text>
<text transform="matrix(0.9762 0 -0.2169 0.9762 304.1476 987.2019)" class="st0 st1 st2">Culture</text>
<text transform="matrix(0.9762 0 -0.2169 0.9762 585.6367 987.2019)" class="st0 st1 st2">Culture</text>
<text transform="matrix(0.9762 0 -0.2169 0.9762 867.1259 987.2019)" class="st0 st1 st2">Culture</text>
<text transform="matrix(0.9762 0 -0.2169 0.9762 1148.6149 987.2019)" class="st0 st1 st2">Culture</text>
<text transform="matrix(0.9762 0 -0.2169 0.9762 1430.104 987.2019)" class="st0 st1 st2">Culture</text>
<text transform="matrix(0.9762 0 -0.2169 0.9762 1711.5931 987.2019)" class="st0 st1 st2">Culture</text>
<text transform="matrix(0.9762 0 -0.2169 0.9762 1993.0823 987.2019)" class="st0 st1 st2">Culture</text>
<text transform="matrix(0.9762 0 -0.2169 0.9762 2274.5713 987.2019)" class="st0 st1 st2">Culture</text>
<text transform="matrix(0.9762 0 -0.2169 0.9762 -110.7104 1052.9199)" class="st0 st1 st2">Culture</text>
<text transform="matrix(0.9762 0 -0.2169 0.9762 170.7787 1052.9199)" class="st0 st1 st2">Culture</text>
<text transform="matrix(0.9762 0 -0.2169 0.9762 452.2679 1052.9199)" class="st0 st1 st2">Culture</text>
<text transform="matrix(0.9762 0 -0.2169 0.9762 733.757 1052.9199)" class="st0 st1 st2">Culture</text>
<text transform="matrix(0.9762 0 -0.2169 0.9762 1015.2461 1052.9199)" class="st0 st1 st2">Culture</text>
<text transform="matrix(0.9762 0 -0.2169 0.9762 1296.7351 1052.9199)" class="st0 st1 st2">Culture</text>
<text transform="matrix(0.9762 0 -0.2169 0.9762 1578.2242 1052.9199)" class="st0 st1 st2">Culture</text>
<text transform="matrix(0.9762 0 -0.2169 0.9762 1859.7134 1052.9199)" class="st0 st1 st2">Culture</text>
<text transform="matrix(0.9762 0 -0.2169 0.9762 2141.2024 1052.9199)" class="st0 st1 st2">Culture</text>
</svg>
