<?xml version="1.0" encoding="utf-8"?>
<!-- Generator: Adobe Illustrator 25.4.0, SVG Export Plug-In . SVG Version: 6.00 Build 0)  -->
<svg version="1.1" id="Layer_1" xmlns="http://www.w3.org/2000/svg" xmlns:xlink="http://www.w3.org/1999/xlink" x="0px" y="0px"
	 viewBox="0 0 1920 1080" style="enable-background:new 0 0 1920 1080;" xml:space="preserve">
<style type="text/css">
	.st0{opacity:0.6;fill:none;stroke:#0042BF;stroke-width:0.5;}
	.st1{font-family:'Cafe24Ohsquare';}
	.st2{font-size:60.8766px;}
</style>
<text transform="matrix(0.9856 0 -0.1691 0.9856 128.3913 88.0082)" class="st0 st1 st2">HOT Places</text>
<text transform="matrix(0.9856 0 -0.1691 0.9856 521.8454 88.0082)" class="st0 st1 st2">HOT Places</text>
<text transform="matrix(0.9856 0 -0.1691 0.9856 915.2995 88.0082)" class="st0 st1 st2">HOT Places</text>
<text transform="matrix(0.9856 0 -0.1691 0.9856 1308.7526 88.0082)" class="st0 st1 st2">HOT Places</text>
<text transform="matrix(0.9856 0 -0.1691 0.9856 1702.2057 88.0082)" class="st0 st1 st2">HOT Places</text>
<text transform="matrix(0.9856 0 -0.1691 0.9856 2095.6589 88.0082)" class="st0 st1 st2">HOT Places</text>
<text transform="matrix(0.9856 0 -0.1691 0.9856 -69.1035 157.5921)" class="st0 st1 st2">HOT Places</text>
<text transform="matrix(0.9856 0 -0.1691 0.9856 324.3506 157.5921)" class="st0 st1 st2">HOT Places</text>
<text transform="matrix(0.9856 0 -0.1691 0.9856 717.8037 157.5921)" class="st0 st1 st2">HOT Places</text>
<text transform="matrix(0.9856 0 -0.1691 0.9856 1111.2578 157.5921)" class="st0 st1 st2">HOT Places</text>
<text transform="matrix(0.9856 0 -0.1691 0.9856 1504.7109 157.5921)" class="st0 st1 st2">HOT Places</text>
<text transform="matrix(0.9856 0 -0.1691 0.9856 1898.1641 157.5921)" class="st0 st1 st2">HOT Places</text>
<text transform="matrix(0.9856 0 -0.1691 0.9856 103.5202 232.9741)" class="st0 st1 st2">HOT Places</text>
<text transform="matrix(0.9856 0 -0.1691 0.9856 496.9744 232.9741)" class="st0 st1 st2">HOT Places</text>
<text transform="matrix(0.9856 0 -0.1691 0.9856 890.4285 232.9741)" class="st0 st1 st2">HOT Places</text>
<text transform="matrix(0.9856 0 -0.1691 0.9856 1283.8816 232.9741)" class="st0 st1 st2">HOT Places</text>
<text transform="matrix(0.9856 0 -0.1691 0.9856 1677.3347 232.9741)" class="st0 st1 st2">HOT Places</text>
<text transform="matrix(0.9856 0 -0.1691 0.9856 2070.7878 232.9741)" class="st0 st1 st2">HOT Places</text>
<text transform="matrix(0.9856 0 -0.1691 0.9856 -93.9745 302.5581)" class="st0 st1 st2">HOT Places</text>
<text transform="matrix(0.9856 0 -0.1691 0.9856 299.4796 302.5581)" class="st0 st1 st2">HOT Places</text>
<text transform="matrix(0.9856 0 -0.1691 0.9856 692.9327 302.5581)" class="st0 st1 st2">HOT Places</text>
<text transform="matrix(0.9856 0 -0.1691 0.9856 1086.3868 302.5581)" class="st0 st1 st2">HOT Places</text>
<text transform="matrix(0.9856 0 -0.1691 0.9856 1479.84 302.5581)" class="st0 st1 st2">HOT Places</text>
<text transform="matrix(0.9856 0 -0.1691 0.9856 1873.2931 302.5581)" class="st0 st1 st2">HOT Places</text>
<text transform="matrix(0.9856 0 -0.1691 0.9856 78.6491 377.9406)" class="st0 st1 st2">HOT Places</text>
<text transform="matrix(0.9856 0 -0.1691 0.9856 472.1032 377.9406)" class="st0 st1 st2">HOT Places</text>
<text transform="matrix(0.9856 0 -0.1691 0.9856 865.5574 377.9406)" class="st0 st1 st2">HOT Places</text>
<text transform="matrix(0.9856 0 -0.1691 0.9856 1259.0105 377.9406)" class="st0 st1 st2">HOT Places</text>
<text transform="matrix(0.9856 0 -0.1691 0.9856 1652.4636 377.9406)" class="st0 st1 st2">HOT Places</text>
<text transform="matrix(0.9856 0 -0.1691 0.9856 2045.9167 377.9406)" class="st0 st1 st2">HOT Places</text>
<text transform="matrix(0.9856 0 -0.1691 0.9856 -118.8456 447.5245)" class="st0 st1 st2">HOT Places</text>
<text transform="matrix(0.9856 0 -0.1691 0.9856 274.6085 447.5245)" class="st0 st1 st2">HOT Places</text>
<text transform="matrix(0.9856 0 -0.1691 0.9856 668.0616 447.5245)" class="st0 st1 st2">HOT Places</text>
<text transform="matrix(0.9856 0 -0.1691 0.9856 1061.5157 447.5245)" class="st0 st1 st2">HOT Places</text>
<text transform="matrix(0.9856 0 -0.1691 0.9856 1454.9689 447.5245)" class="st0 st1 st2">HOT Places</text>
<text transform="matrix(0.9856 0 -0.1691 0.9856 1848.422 447.5245)" class="st0 st1 st2">HOT Places</text>
<text transform="matrix(0.9856 0 -0.1691 0.9856 53.7781 522.9066)" class="st0 st1 st2">HOT Places</text>
<text transform="matrix(0.9856 0 -0.1691 0.9856 447.2322 522.9066)" class="st0 st1 st2">HOT Places</text>
<text transform="matrix(0.9856 0 -0.1691 0.9856 840.6863 522.9066)" class="st0 st1 st2">HOT Places</text>
<text transform="matrix(0.9856 0 -0.1691 0.9856 1234.1394 522.9066)" class="st0 st1 st2">HOT Places</text>
<text transform="matrix(0.9856 0 -0.1691 0.9856 1627.5925 522.9066)" class="st0 st1 st2">HOT Places</text>
<text transform="matrix(0.9856 0 -0.1691 0.9856 2021.0457 522.9066)" class="st0 st1 st2">HOT Places</text>
<text transform="matrix(0.9856 0 -0.1691 0.9856 -143.7167 592.4905)" class="st0 st1 st2">HOT Places</text>
<text transform="matrix(0.9856 0 -0.1691 0.9856 249.7374 592.4905)" class="st0 st1 st2">HOT Places</text>
<text transform="matrix(0.9856 0 -0.1691 0.9856 643.1906 592.4905)" class="st0 st1 st2">HOT Places</text>
<text transform="matrix(0.9856 0 -0.1691 0.9856 1036.6447 592.4905)" class="st0 st1 st2">HOT Places</text>
<text transform="matrix(0.9856 0 -0.1691 0.9856 1430.0978 592.4905)" class="st0 st1 st2">HOT Places</text>
<text transform="matrix(0.9856 0 -0.1691 0.9856 1823.5509 592.4905)" class="st0 st1 st2">HOT Places</text>
<text transform="matrix(0.9856 0 -0.1691 0.9856 28.9071 667.8725)" class="st0 st1 st2">HOT Places</text>
<text transform="matrix(0.9856 0 -0.1691 0.9856 422.3612 667.8725)" class="st0 st1 st2">HOT Places</text>
<text transform="matrix(0.9856 0 -0.1691 0.9856 815.8143 667.8725)" class="st0 st1 st2">HOT Places</text>
<text transform="matrix(0.9856 0 -0.1691 0.9856 1209.2684 667.8725)" class="st0 st1 st2">HOT Places</text>
<text transform="matrix(0.9856 0 -0.1691 0.9856 1602.7216 667.8725)" class="st0 st1 st2">HOT Places</text>
<text transform="matrix(0.9856 0 -0.1691 0.9856 1996.1747 667.8725)" class="st0 st1 st2">HOT Places</text>
<text transform="matrix(0.9856 0 -0.1691 0.9856 -168.5877 737.4564)" class="st0 st1 st2">HOT Places</text>
<text transform="matrix(0.9856 0 -0.1691 0.9856 224.8664 737.4564)" class="st0 st1 st2">HOT Places</text>
<text transform="matrix(0.9856 0 -0.1691 0.9856 618.3195 737.4564)" class="st0 st1 st2">HOT Places</text>
<text transform="matrix(0.9856 0 -0.1691 0.9856 1011.7736 737.4564)" class="st0 st1 st2">HOT Places</text>
<text transform="matrix(0.9856 0 -0.1691 0.9856 1405.2268 737.4564)" class="st0 st1 st2">HOT Places</text>
<text transform="matrix(0.9856 0 -0.1691 0.9856 1798.6799 737.4564)" class="st0 st1 st2">HOT Places</text>
<text transform="matrix(0.9856 0 -0.1691 0.9856 4.0361 812.8385)" class="st0 st1 st2">HOT Places</text>
<text transform="matrix(0.9856 0 -0.1691 0.9856 397.4902 812.8385)" class="st0 st1 st2">HOT Places</text>
<text transform="matrix(0.9856 0 -0.1691 0.9856 790.9433 812.8385)" class="st0 st1 st2">HOT Places</text>
<text transform="matrix(0.9856 0 -0.1691 0.9856 1184.3975 812.8385)" class="st0 st1 st2">HOT Places</text>
<text transform="matrix(0.9856 0 -0.1691 0.9856 1577.8506 812.8385)" class="st0 st1 st2">HOT Places</text>
<text transform="matrix(0.9856 0 -0.1691 0.9856 1971.3037 812.8385)" class="st0 st1 st2">HOT Places</text>
<text transform="matrix(0.9856 0 -0.1691 0.9856 -193.4587 882.4224)" class="st0 st1 st2">HOT Places</text>
<text transform="matrix(0.9856 0 -0.1691 0.9856 199.9954 882.4224)" class="st0 st1 st2">HOT Places</text>
<text transform="matrix(0.9856 0 -0.1691 0.9856 593.4485 882.4224)" class="st0 st1 st2">HOT Places</text>
<text transform="matrix(0.9856 0 -0.1691 0.9856 986.9026 882.4224)" class="st0 st1 st2">HOT Places</text>
<text transform="matrix(0.9856 0 -0.1691 0.9856 1380.3557 882.4224)" class="st0 st1 st2">HOT Places</text>
<text transform="matrix(0.9856 0 -0.1691 0.9856 1773.8088 882.4224)" class="st0 st1 st2">HOT Places</text>
<text transform="matrix(0.9856 0 -0.1691 0.9856 -20.8351 957.8054)" class="st0 st1 st2">HOT Places</text>
<text transform="matrix(0.9856 0 -0.1691 0.9856 372.619 957.8054)" class="st0 st1 st2">HOT Places</text>
<text transform="matrix(0.9856 0 -0.1691 0.9856 766.0721 957.8054)" class="st0 st1 st2">HOT Places</text>
<text transform="matrix(0.9856 0 -0.1691 0.9856 1159.5262 957.8054)" class="st0 st1 st2">HOT Places</text>
<text transform="matrix(0.9856 0 -0.1691 0.9856 1552.9794 957.8054)" class="st0 st1 st2">HOT Places</text>
<text transform="matrix(0.9856 0 -0.1691 0.9856 1946.4325 957.8054)" class="st0 st1 st2">HOT Places</text>
<text transform="matrix(0.9856 0 -0.1691 0.9856 -218.3297 1027.3884)" class="st0 st1 st2">HOT Places</text>
<text transform="matrix(0.9856 0 -0.1691 0.9856 175.1244 1027.3884)" class="st0 st1 st2">HOT Places</text>
<text transform="matrix(0.9856 0 -0.1691 0.9856 568.5775 1027.3884)" class="st0 st1 st2">HOT Places</text>
<text transform="matrix(0.9856 0 -0.1691 0.9856 962.0316 1027.3884)" class="st0 st1 st2">HOT Places</text>
<text transform="matrix(0.9856 0 -0.1691 0.9856 1355.4847 1027.3884)" class="st0 st1 st2">HOT Places</text>
<text transform="matrix(0.9856 0 -0.1691 0.9856 1748.9379 1027.3884)" class="st0 st1 st2">HOT Places</text>
<text transform="matrix(0.9856 0 -0.1691 0.9856 -45.7061 1102.7714)" class="st0 st1 st2">HOT Places</text>
<text transform="matrix(0.9856 0 -0.1691 0.9856 347.748 1102.7714)" class="st0 st1 st2">HOT Places</text>
<text transform="matrix(0.9856 0 -0.1691 0.9856 741.2011 1102.7714)" class="st0 st1 st2">HOT Places</text>
<text transform="matrix(0.9856 0 -0.1691 0.9856 1134.6552 1102.7714)" class="st0 st1 st2">HOT Places</text>
<text transform="matrix(0.9856 0 -0.1691 0.9856 1528.1083 1102.7714)" class="st0 st1 st2">HOT Places</text>
<text transform="matrix(0.9856 0 -0.1691 0.9856 1921.5614 1102.7714)" class="st0 st1 st2">HOT Places</text>
<text transform="matrix(0.9856 0 -0.1691 0.9856 -243.2009 1172.3553)" class="st0 st1 st2">HOT Places</text>
<text transform="matrix(0.9856 0 -0.1691 0.9856 150.2532 1172.3553)" class="st0 st1 st2">HOT Places</text>
<text transform="matrix(0.9856 0 -0.1691 0.9856 543.7063 1172.3553)" class="st0 st1 st2">HOT Places</text>
<text transform="matrix(0.9856 0 -0.1691 0.9856 937.1604 1172.3553)" class="st0 st1 st2">HOT Places</text>
<text transform="matrix(0.9856 0 -0.1691 0.9856 1330.6135 1172.3553)" class="st0 st1 st2">HOT Places</text>
<text transform="matrix(0.9856 0 -0.1691 0.9856 1724.0667 1172.3553)" class="st0 st1 st2">HOT Places</text>
</svg>
