<?xml version="1.0" encoding="utf-8"?>
<!-- Generator: Adobe Illustrator 25.4.0, SVG Export Plug-In . SVG Version: 6.00 Build 0)  -->
<svg version="1.1" id="Layer_1" xmlns="http://www.w3.org/2000/svg" xmlns:xlink="http://www.w3.org/1999/xlink" x="0px" y="0px"
	 viewBox="0 0 1261.2 365.4" style="enable-background:new 0 0 1261.2 365.4;" xml:space="preserve">
<style type="text/css">
	.st0{fill:none;stroke:#0042BF;stroke-width:50;stroke-miterlimit:10;}
	.st1{fill:#0042BF;}
</style>
<line class="st0" x1="0" y1="322.6" x2="210.2" y2="322.6"/>
<line class="st0" x1="210.2" y1="31.9" x2="1261.2" y2="31.9"/>
<path class="st0" d="M210.2,189.9c36.6,0,66.3,29.7,66.3,66.3s-29.7,66.3-66.3,66.3"/>
<path class="st0" d="M210.2,189.9c-43.6,0-79-35.4-79-79s35.4-79,79-79"/>
<g>
	<path class="st1" d="M674.1,164.4c36.7,0,66.6,29.9,66.6,66.6s-29.9,66.6-66.6,66.6c-36.7,0-66.6-29.9-66.6-66.6
		S637.4,164.4,674.1,164.4 M674.1,114.4c-64.4,0-116.6,52.2-116.6,116.6s52.2,116.6,116.6,116.6s116.6-52.2,116.6-116.6
		S738.6,114.4,674.1,114.4L674.1,114.4z"/>
</g>
<path class="st0" d="M1023.7,114.4v116.6c0,49.3-40,89.3-89.3,89.3s-89.3-40-89.3-89.3V114.4"/>
<polyline class="st0" points="538.9,141.8 360.3,141.8 360.3,320.3 538.9,320.3 "/>
<polyline class="st0" points="1257.2,320.3 1107.6,320.3 1107.6,114.4 "/>
<line class="st0" x1="360.3" y1="231.1" x2="504" y2="231.1"/>
</svg>
